<?xml version="1.0" encoding="utf-8"?>
<!-- Generator: Adobe Illustrator 23.0.1, SVG Export Plug-In . SVG Version: 6.00 Build 0)  -->
<svg version="1.1" id="Capa_1" xmlns="http://www.w3.org/2000/svg" xmlns:xlink="http://www.w3.org/1999/xlink" x="0px" y="0px"
	 viewBox="0 0 871.1 209.9" style="enable-background:new 0 0 871.1 209.9;" xml:space="preserve">
<style type="text/css">
	.st0{fill:#24252E;}
	.st1{fill:#063967;}
	.st2{fill:#1D6BB4;}
</style>
<g>
	<g>
		<path class="st0" d="M386.1,28.1v126.8h-22.9v-10.7C356,152.1,346,157,334,157c-25,0-43.9-20.3-43.9-47c0-26.8,18.8-47,43.9-47
			c12,0,22,4.9,29.2,12.9V28.1H386.1z M363.2,110c0-14.1-10.6-24.8-24.8-24.8c-14.1,0-24.7,10.7-24.7,24.8
			c0,14.1,10.6,24.8,24.7,24.8C352.7,134.8,363.2,124.1,363.2,110z"/>
		<path class="st0" d="M394,143.3l11.1-15.1c6.9,6,15.5,10,26.2,10c9.2,0,15.9-3,15.9-8.5c0-6-7.8-8.1-17.6-10.4
			c-14.3-3.2-32.8-7.6-32.8-28c0-19,16.7-28.4,36.6-28.4c15.3,0,26.8,5.5,34.9,11.8l-11.1,15.3c-6.5-4.9-14.1-8.3-23.3-8.3
			c-7.8,0-14.1,2.5-14.1,7.8c0,6,7.6,7.9,17.6,10c14.3,3.2,32.8,7.6,32.8,28c0,19-16.9,29.4-38.4,29.4
			C415.2,157,402.7,150.7,394,143.3z"/>
		<path class="st0" d="M475.6,37.6c0-8.1,6.3-14.3,14.4-14.3s14.4,6.2,14.4,14.3s-6.3,14.3-14.4,14.3S475.6,45.7,475.6,37.6z
			 M478.6,65.1h22.9v89.8h-22.9V65.1z"/>
		<path class="st0" d="M606.9,181.3l-23.6,6.3c-0.7-6.5-6.2-10.7-14.3-10.7h-29.4c-16.7,0-27.8-9.7-27.8-24c0-9.2,4.8-18,12.2-22.5
			c-7.6-7-12-16.7-12-28c0-22.5,18-39.5,42.1-39.5c7.2,0,13.7,1.6,19.6,4.2c2.6-9.7,11.3-15.7,23.1-15.7h7.4v21.1h-6.3
			c-4.6,0-8.3,2.5-9.2,6.5c4.9,6.3,7.8,14.4,7.8,23.3c0,22.5-18.3,39.5-42.3,39.5c-5.3,0-10.2-0.9-14.8-2.3
			c-2.8,1.8-4.6,4.8-4.6,7.8c0,4.4,3.9,7.6,9.5,7.6h29.2C591.2,154.9,603.9,164.8,606.9,181.3z M535.3,102.4
			c0,10.2,7.9,17.8,18.7,17.8c10.6,0,18.7-7.6,18.7-17.8s-8.1-17.8-18.7-17.8C543.3,84.6,535.3,92.2,535.3,102.4z"/>
		<path class="st0" d="M695.1,97.8v57.1h-22.9v-49.7c0-12.2-7.8-20.1-19.7-20.1c-12.5,0-21,8.1-21,20.4v49.3h-22.9V65.1h22.9v10
			c7-7.9,16.9-12.2,28.5-12.2C681.2,63,695.1,76.7,695.1,97.8z"/>
		<path class="st0" d="M705.5,37.6c0-8.1,6.3-14.3,14.4-14.3s14.4,6.2,14.4,14.3s-6.3,14.3-14.4,14.3S705.5,45.7,705.5,37.6z
			 M708.5,65.1h22.9v89.8h-22.9V65.1z"/>
		<path class="st0" d="M740.7,110c0-26.8,20.8-47,48.3-47s48.3,20.3,48.3,47c0,26.8-20.8,47-48.3,47S740.7,136.8,740.7,110z
			 M813.7,110c0-14.1-10.4-24.8-24.7-24.8c-14.1,0-24.7,10.7-24.7,24.8c0,14.1,10.6,24.8,24.7,24.8
			C803.3,134.8,813.7,124.1,813.7,110z"/>
		<path class="st0" d="M839.2,140.6c0-9,6.9-15.9,16-15.9c9,0,15.9,6.9,15.9,15.9c0,9-6.9,15.9-15.9,15.9
			C846.1,156.5,839.2,149.6,839.2,140.6z"/>
	</g>
	<path class="st1" d="M225.9,59.8l0-42.8L135.1,0v209.9l90.8-47.3l0-41l44.3-38.4L225.9,59.8z M179.9,158c-10.7,4.7-19,2.1-25-2.6
		l8-19.7c4.5,4,9.9,5.6,16.4,3.1c5.1-2,8.6-5.7,8.6-10.2c0-4.8-4.1-4.9-9.7-4.9c-9,0.2-21.4,0.4-21.4-20.8c0-19.4,11.2-31.7,24-34.8
		c9.5-2.3,16.1,1.2,20.9,5.6l-6.8,17.1c-3.9-3.1-8.2-4.9-13.6-3.4c-4.2,1.2-7.8,4.1-7.8,8.5c0,4.9,4.3,5.1,9.9,5.2
		c8.4,0.1,19.2,0.6,19.2,19.6C202.7,138.5,192.9,152.3,179.9,158z"/>
	<path class="st2" d="M44.3,17l0,42.8L0,83.2l44.3,38.4l0,41l90.8,47.3V0L44.3,17z M118.3,166.7l-17.1-7.5v-8.8
		c-4.4,5-10.2,6.3-16.8,3.4c-14.3-6.3-24.5-28.9-24.5-52.7c0-23.8,10.2-39.3,24.5-35.7c6.6,1.6,12.4,7,16.8,15V35.6l17.1-2.2V166.7z
		 M87.4,89.7c-7.4-2.2-12.8,4.9-12.8,16.6c0,11.7,5.4,22.5,12.8,25.4c7.8,3.1,13.7-3.9,13.7-16.2C101.2,103.1,95.2,92,87.4,89.7z"/>
</g>
</svg>
