<?xml version="1.0" encoding="utf-8"?>
<!-- Generator: Adobe Illustrator 23.0.1, SVG Export Plug-In . SVG Version: 6.00 Build 0)  -->
<svg version="1.1" id="Capa_1" xmlns="http://www.w3.org/2000/svg" xmlns:xlink="http://www.w3.org/1999/xlink" x="0px" y="0px"
	 viewBox="0 0 270.2 209.9" style="enable-background:new 0 0 270.2 209.9;" xml:space="preserve">
<style type="text/css">
	.st0{fill:#063967;}
	.st1{fill:#1D6BB4;}
</style>
<g>
	<path class="st0" d="M225.9,59.8l0-42.8L135.1,0v209.9l90.8-47.3l0-41l44.3-38.4L225.9,59.8z M179.9,158c-10.7,4.7-19,2.1-25-2.6
		l8-19.7c4.5,4,9.9,5.6,16.4,3.1c5.1-2,8.6-5.7,8.6-10.2c0-4.8-4.1-4.9-9.7-4.9c-9,0.2-21.4,0.4-21.4-20.8c0-19.4,11.2-31.7,24-34.8
		c9.5-2.3,16.1,1.2,20.9,5.6l-6.8,17.1c-3.9-3.1-8.2-4.9-13.6-3.4c-4.2,1.2-7.8,4.1-7.8,8.5c0,4.9,4.3,5.1,9.9,5.2
		c8.4,0.1,19.2,0.6,19.2,19.6C202.7,138.5,192.9,152.3,179.9,158z"/>
	<path class="st1" d="M44.3,17l0,42.8L0,83.2l44.3,38.4l0,41l90.8,47.3V0L44.3,17z M118.3,166.7l-17.1-7.5v-8.8
		c-4.4,5-10.2,6.3-16.8,3.4c-14.3-6.3-24.5-28.9-24.5-52.7c0-23.8,10.2-39.3,24.5-35.7c6.6,1.6,12.4,7,16.8,15V35.6l17.1-2.2V166.7z
		 M87.4,89.7c-7.4-2.2-12.8,4.9-12.8,16.6c0,11.7,5.4,22.5,12.8,25.4c7.8,3.1,13.7-3.9,13.7-16.2C101.2,103.1,95.2,92,87.4,89.7z"/>
</g>
</svg>
