<?xml version="1.0" encoding="utf-8"?>
<!-- Generator: Adobe Illustrator 23.0.1, SVG Export Plug-In . SVG Version: 6.00 Build 0)  -->
<svg version="1.1" id="Capa_1" xmlns="http://www.w3.org/2000/svg" xmlns:xlink="http://www.w3.org/1999/xlink" x="0px" y="0px"
	 viewBox="0 0 871.1 247.5" style="enable-background:new 0 0 871.1 247.5;" xml:space="preserve">
<style type="text/css">
	.st0{fill:#24252E;}
	.st1{fill:#7C8389;}
	.st2{fill:#063967;}
	.st3{fill:#1D6BB4;}
</style>
<g>
	<g>
		<path class="st0" d="M386.1,28.1v126.8h-22.9v-10.7C356,152.1,346,157,334,157c-25,0-43.9-20.3-43.9-47c0-26.8,18.8-47,43.9-47
			c12,0,22,4.9,29.2,12.9V28.1H386.1z M363.2,110c0-14.1-10.6-24.8-24.8-24.8c-14.1,0-24.7,10.7-24.7,24.8
			c0,14.1,10.6,24.8,24.7,24.8C352.7,134.8,363.2,124.1,363.2,110z"/>
		<path class="st0" d="M394,143.3l11.1-15.1c6.9,6,15.5,10,26.2,10c9.2,0,15.9-3,15.9-8.5c0-6-7.8-8.1-17.6-10.4
			c-14.3-3.2-32.8-7.6-32.8-28c0-19,16.7-28.4,36.6-28.4c15.3,0,26.8,5.5,34.9,11.8l-11.1,15.3c-6.5-4.9-14.1-8.3-23.3-8.3
			c-7.8,0-14.1,2.5-14.1,7.8c0,6,7.6,7.9,17.6,10c14.3,3.2,32.8,7.6,32.8,28c0,19-16.9,29.4-38.4,29.4
			C415.2,157,402.7,150.7,394,143.3z"/>
		<path class="st0" d="M475.6,37.6c0-8.1,6.3-14.3,14.4-14.3s14.4,6.2,14.4,14.3s-6.3,14.3-14.4,14.3S475.6,45.7,475.6,37.6z
			 M478.6,65.1h22.9v89.8h-22.9V65.1z"/>
		<path class="st0" d="M606.9,181.3l-23.6,6.3c-0.7-6.5-6.2-10.7-14.3-10.7h-29.4c-16.7,0-27.8-9.7-27.8-24c0-9.2,4.8-18,12.2-22.5
			c-7.6-7-12-16.7-12-28c0-22.5,18-39.5,42.1-39.5c7.2,0,13.7,1.6,19.6,4.2c2.6-9.7,11.3-15.7,23.1-15.7h7.4v21.1h-6.3
			c-4.6,0-8.3,2.5-9.2,6.5c4.9,6.3,7.8,14.4,7.8,23.3c0,22.5-18.3,39.5-42.3,39.5c-5.3,0-10.2-0.9-14.8-2.3
			c-2.8,1.8-4.6,4.8-4.6,7.8c0,4.4,3.9,7.6,9.5,7.6h29.2C591.2,154.9,603.9,164.8,606.9,181.3z M535.3,102.4
			c0,10.2,7.9,17.8,18.7,17.8c10.6,0,18.7-7.6,18.7-17.8s-8.1-17.8-18.7-17.8C543.3,84.6,535.3,92.2,535.3,102.4z"/>
		<path class="st0" d="M695.1,97.8v57.1h-22.9v-49.7c0-12.2-7.8-20.1-19.7-20.1c-12.5,0-21,8.1-21,20.4v49.3h-22.9V65.1h22.9v10
			c7-7.9,16.9-12.2,28.5-12.2C681.2,63,695.1,76.7,695.1,97.8z"/>
		<path class="st0" d="M705.5,37.6c0-8.1,6.3-14.3,14.4-14.3s14.4,6.2,14.4,14.3s-6.3,14.3-14.4,14.3S705.5,45.7,705.5,37.6z
			 M708.5,65.1h22.9v89.8h-22.9V65.1z"/>
		<path class="st0" d="M740.7,110c0-26.8,20.8-47,48.3-47s48.3,20.3,48.3,47c0,26.8-20.8,47-48.3,47S740.7,136.8,740.7,110z
			 M813.7,110c0-14.1-10.4-24.8-24.7-24.8c-14.1,0-24.7,10.7-24.7,24.8c0,14.1,10.6,24.8,24.7,24.8
			C803.3,134.8,813.7,124.1,813.7,110z"/>
		<path class="st0" d="M839.2,140.6c0-9,6.9-15.9,16-15.9c9,0,15.9,6.9,15.9,15.9c0,9-6.9,15.9-15.9,15.9
			C846.1,156.5,839.2,149.6,839.2,140.6z"/>
	</g>
	<g>
		<path class="st1" d="M313.9,236c-2.8,0-4.7-0.8-5.8-2.4c-1.1-1.6-1.6-3.7-1.6-6.3V212h-4v-3l4.2-0.3l0.5-7.5h3.4v7.5h7.3v3.3h-7.3
			v15.5c0,1.7,0.3,2.9,0.9,3.9c0.6,0.9,1.7,1.4,3.3,1.4c0.5,0,1-0.1,1.6-0.2c0.6-0.1,1.1-0.3,1.5-0.5l0.8,3
			c-0.7,0.3-1.5,0.5-2.4,0.7C315.4,235.9,314.6,236,313.9,236z"/>
		<path class="st1" d="M327.5,236c-1.5,0-2.8-0.3-4-0.9c-1.2-0.6-2.1-1.4-2.8-2.6c-0.7-1.1-1-2.5-1-4c0-2.9,1.3-5.2,4-6.7
			c2.7-1.6,6.9-2.6,12.6-3.3c0-1.2-0.2-2.3-0.5-3.4c-0.3-1.1-0.9-2-1.7-2.7c-0.8-0.7-2-1-3.5-1c-1.6,0-3.1,0.3-4.5,0.9
			c-1.4,0.6-2.6,1.3-3.6,2l-1.6-2.8c0.8-0.5,1.7-1,2.8-1.6c1.1-0.5,2.2-1,3.5-1.4c1.3-0.4,2.6-0.5,4.1-0.5c2.1,0,3.9,0.5,5.2,1.4
			c1.3,0.9,2.3,2.2,2.9,3.8c0.6,1.6,0.9,3.5,0.9,5.7v16.5H337l-0.3-3.2h-0.2c-1.3,1.1-2.7,2-4.2,2.8
			C330.8,235.6,329.2,236,327.5,236z M328.6,232.8c1.4,0,2.6-0.3,3.9-1c1.2-0.6,2.5-1.6,3.9-2.8v-7.8c-3.2,0.4-5.6,0.9-7.5,1.5
			c-1.8,0.6-3.2,1.4-4,2.3c-0.8,0.9-1.2,2-1.2,3.2c0,1.6,0.5,2.7,1.5,3.4C326.1,232.4,327.2,232.8,328.6,232.8z"/>
		<path class="st1" d="M352,236c-1,0-1.9-0.2-2.5-0.6c-0.6-0.4-1.1-1-1.4-1.9c-0.3-0.8-0.4-1.8-0.4-3.1v-34.4h4v34.7
			c0,0.7,0.1,1.1,0.4,1.4c0.3,0.3,0.5,0.4,0.9,0.4c0.1,0,0.2,0,0.4,0c0.1,0,0.3,0,0.6-0.1l0.5,3.1c-0.3,0.1-0.6,0.2-1,0.3
			C353,236,352.5,236,352,236z"/>
		<path class="st1" d="M364.4,236c-1,0-1.9-0.2-2.5-0.6c-0.6-0.4-1.1-1-1.4-1.9c-0.3-0.8-0.4-1.8-0.4-3.1v-34.4h4v34.7
			c0,0.7,0.1,1.1,0.4,1.4c0.3,0.3,0.5,0.4,0.9,0.4c0.1,0,0.2,0,0.4,0c0.1,0,0.3,0,0.6-0.1l0.5,3.1c-0.3,0.1-0.6,0.2-1,0.3
			C365.4,236,364.9,236,364.4,236z"/>
		<path class="st1" d="M383,236c-2.3,0-4.5-0.6-6.4-1.7c-1.9-1.1-3.4-2.7-4.6-4.8c-1.1-2.1-1.7-4.6-1.7-7.5c0-2.9,0.6-5.3,1.7-7.5
			c1.1-2.1,2.6-3.7,4.4-4.9c1.8-1.1,3.7-1.7,5.8-1.7c2.2,0,4.1,0.5,5.7,1.5c1.6,1,2.8,2.5,3.6,4.3c0.8,1.9,1.2,4.1,1.2,6.6
			c0,0.4,0,0.8-0.1,1.3c0,0.4-0.1,0.8-0.2,1.2h-19.1l-0.1-2.9h15.8c0-2.9-0.6-5-1.8-6.5c-1.2-1.5-2.9-2.2-5.1-2.2
			c-1.3,0-2.6,0.4-3.9,1.1c-1.2,0.8-2.3,1.9-3.1,3.5c-0.8,1.6-1.2,3.6-1.2,6.1c0,2.4,0.4,4.4,1.3,5.9c0.8,1.6,2,2.8,3.4,3.6
			c1.4,0.8,3,1.2,4.6,1.2c1.3,0,2.5-0.2,3.6-0.6c1.1-0.4,2.1-0.9,3.1-1.5l1.5,2.6c-1.1,0.7-2.4,1.4-3.8,1.9
			C386.5,235.8,384.8,236,383,236z"/>
		<path class="st1" d="M398.1,235.4v-26.7h3.3l0.3,4.9h0.2c0.9-1.7,2-3,3.3-4c1.3-1,2.7-1.5,4.3-1.5c0.5,0,1,0,1.5,0.1
			s0.9,0.2,1.3,0.4l-0.8,3.5c-0.4-0.1-0.8-0.3-1.2-0.3c-0.3-0.1-0.8-0.1-1.3-0.1c-1.1,0-2.3,0.5-3.6,1.4c-1.2,0.9-2.3,2.6-3.3,4.9
			v17.4H398.1z"/>
		<path class="st1" d="M435.5,236c-2.4,0-4.6-0.6-6.5-1.7c-1.9-1.1-3.5-2.7-4.6-4.8c-1.1-2.1-1.7-4.6-1.7-7.6c0-3,0.6-5.6,1.9-7.7
			c1.2-2.1,2.9-3.7,4.9-4.8c2-1.1,4.2-1.6,6.5-1.6c1.8,0,3.3,0.3,4.5,0.9c1.3,0.6,2.4,1.3,3.3,2.2l-2.8,3.6
			c-0.7-0.7-1.5-1.2-2.3-1.6c-0.8-0.4-1.6-0.5-2.6-0.5c-1.5,0-2.8,0.4-4,1.2c-1.2,0.8-2.1,1.9-2.8,3.4c-0.7,1.4-1,3.1-1,5
			c0,1.9,0.3,3.6,1,5s1.6,2.5,2.7,3.3c1.1,0.8,2.5,1.2,4,1.2c1.1,0,2.2-0.2,3.2-0.7c1-0.5,1.9-1.1,2.7-1.7l2.3,3.7
			c-1.2,1.1-2.6,1.9-4.1,2.5S437.1,236,435.5,236z"/>
		<path class="st1" d="M448.5,235.4v-26.9h4.6l0.4,4.8h0.2c1-1.8,2.1-3.1,3.4-4.1c1.3-1,2.7-1.4,4.2-1.4c0.7,0,1.2,0,1.7,0.1
			c0.5,0.1,0.9,0.2,1.3,0.4l-1,4.8c-0.4-0.1-0.9-0.3-1.2-0.3c-0.4-0.1-0.9-0.1-1.5-0.1c-1.1,0-2.2,0.4-3.4,1.3
			c-1.2,0.9-2.2,2.4-3.1,4.5v16.8H448.5z"/>
		<path class="st1" d="M477.7,236c-2.4,0-4.6-0.6-6.6-1.7c-2-1.1-3.6-2.7-4.7-4.8c-1.2-2.1-1.8-4.6-1.8-7.6s0.6-5.5,1.8-7.6
			c1.2-2.1,2.7-3.7,4.6-4.9c1.9-1.1,3.8-1.7,5.9-1.7c2.4,0,4.4,0.5,6,1.6c1.6,1.1,2.9,2.5,3.7,4.5c0.8,1.9,1.2,4.1,1.2,6.7
			c0,0.5,0,1-0.1,1.6s-0.1,1-0.2,1.3h-18.6l-0.1-3.8h14.1c0-2.3-0.5-4.2-1.5-5.4c-1-1.3-2.5-1.9-4.5-1.9c-1.2,0-2.3,0.3-3.4,1
			s-2,1.7-2.7,3.2c-0.7,1.4-1.1,3.3-1.1,5.6c0,2.2,0.4,4.1,1.2,5.5c0.8,1.4,1.9,2.5,3.2,3.2c1.3,0.7,2.7,1,4.2,1
			c1.2,0,2.4-0.2,3.4-0.6c1-0.4,2-0.9,3-1.5l1.9,3.5c-1.2,0.8-2.6,1.5-4.1,2S479.4,236,477.7,236z"/>
		<path class="st1" d="M498.3,236c-1.5,0-2.9-0.3-4.1-1c-1.2-0.6-2.1-1.5-2.8-2.7c-0.7-1.2-1-2.5-1-4.1c0-2.9,1.3-5.1,3.8-6.7
			c2.6-1.6,6.7-2.7,12.3-3.2c0-1.1-0.2-2-0.5-2.9c-0.3-0.9-0.8-1.6-1.6-2.2s-1.8-0.8-3.1-0.8c-1.4,0-2.8,0.3-4.1,0.8
			c-1.3,0.5-2.5,1.2-3.7,1.9l-2.1-3.7c0.9-0.6,1.9-1.2,3.1-1.7c1.1-0.5,2.4-1,3.7-1.3c1.3-0.3,2.7-0.5,4.1-0.5
			c2.2,0,4.1,0.4,5.5,1.3s2.5,2.2,3.2,3.9c0.7,1.7,1,3.8,1,6.1v16.2h-4.6l-0.4-3.1h-0.2c-1.2,1-2.5,1.9-4,2.6
			C501.5,235.7,500,236,498.3,236z M500,231.6c1.2,0,2.3-0.3,3.3-0.9c1-0.6,2.1-1.3,3.2-2.3v-6.7c-2.7,0.3-4.8,0.8-6.4,1.3
			c-1.6,0.5-2.7,1.2-3.4,2c-0.7,0.8-1,1.7-1,2.7c0,1.3,0.4,2.3,1.2,2.9C497.9,231.3,498.9,231.6,500,231.6z"/>
		<path class="st1" d="M526.9,236c-3,0-5.1-0.9-6.3-2.6s-1.8-4-1.8-6.8v-13.7h-3.9v-4.2l4.2-0.3l0.7-7.4h4.6v7.4h7v4.5h-7v13.7
			c0,1.6,0.3,2.8,0.9,3.7c0.6,0.8,1.6,1.3,3,1.3c0.5,0,1-0.1,1.5-0.2c0.5-0.1,1-0.3,1.4-0.4l1,4.1c-0.7,0.2-1.5,0.4-2.4,0.7
			C528.8,235.9,527.9,236,526.9,236z"/>
		<path class="st1" d="M538.6,203.4c-1,0-1.8-0.3-2.4-1c-0.7-0.6-1-1.4-1-2.4c0-1,0.3-1.8,1-2.4c0.7-0.6,1.5-0.9,2.4-0.9
			c1,0,1.9,0.3,2.5,0.9c0.6,0.6,0.9,1.4,0.9,2.4c0,1-0.3,1.8-0.9,2.4C540.4,203.1,539.6,203.4,538.6,203.4z M535.8,235.4v-26.9h5.6
			v26.9H535.8z"/>
		<path class="st1" d="M554.4,235.4l-9.5-26.9h5.7l4.6,14.5c0.4,1.3,0.8,2.6,1.2,4c0.4,1.4,0.8,2.7,1.2,4.1h0.2
			c0.4-1.4,0.8-2.7,1.2-4.1c0.4-1.4,0.8-2.7,1.2-4l4.6-14.5h5.4l-9.3,26.9H554.4z"/>
		<path class="st1" d="M584.1,236c-2.2,0-4.3-0.6-6.2-1.7c-1.9-1.1-3.5-2.7-4.7-4.8s-1.8-4.6-1.8-7.6c0-3,0.6-5.6,1.8-7.7
			c1.2-2.1,2.8-3.7,4.7-4.8c1.9-1.1,4-1.6,6.2-1.6c2.2,0,4.3,0.5,6.2,1.6c1.9,1.1,3.5,2.7,4.6,4.8c1.2,2.1,1.8,4.7,1.8,7.7
			c0,3-0.6,5.5-1.8,7.6c-1.2,2.1-2.7,3.7-4.6,4.8C588.4,235.5,586.4,236,584.1,236z M584.1,231.5c1.4,0,2.7-0.4,3.7-1.2
			c1-0.8,1.8-1.9,2.4-3.3s0.8-3.1,0.8-5c0-1.9-0.3-3.6-0.8-5s-1.3-2.6-2.4-3.4c-1-0.8-2.3-1.2-3.7-1.2c-1.4,0-2.6,0.4-3.7,1.2
			c-1,0.8-1.9,1.9-2.4,3.4c-0.6,1.4-0.9,3.1-0.9,5c0,1.9,0.3,3.6,0.9,5c0.6,1.4,1.4,2.5,2.4,3.3
			C581.5,231.1,582.7,231.5,584.1,231.5z"/>
		<path class="st1" d="M620.9,236c-3.3,0-6-1.2-8-3.7c-2-2.5-3-5.9-3-10.4c0-2.9,0.5-5.5,1.6-7.6c1.1-2.1,2.5-3.7,4.3-4.9
			c1.8-1.1,3.6-1.7,5.6-1.7c1.6,0,2.9,0.3,4,0.8c1.1,0.5,2.2,1.3,3.2,2.2l-0.2-4.5v-10h5.6v39h-4.6l-0.4-3h-0.2
			c-1,1-2.2,1.9-3.5,2.6C623.9,235.7,622.5,236,620.9,236z M622.3,231.4c1.1,0,2.2-0.3,3.2-0.8c1-0.5,2-1.4,2.9-2.5v-13.2
			c-1-0.9-2-1.6-2.9-1.9c-1-0.4-2-0.5-3-0.5c-1.2,0-2.4,0.4-3.4,1.1c-1,0.8-1.9,1.8-2.5,3.3c-0.6,1.4-0.9,3.1-0.9,5.1
			c0,3,0.6,5.4,1.8,7C618.5,230.6,620.2,231.4,622.3,231.4z"/>
		<path class="st1" d="M643.9,203.4c-1,0-1.8-0.3-2.4-1c-0.7-0.6-1-1.4-1-2.4c0-1,0.3-1.8,1-2.4c0.7-0.6,1.5-0.9,2.4-0.9
			c1,0,1.9,0.3,2.5,0.9c0.6,0.6,0.9,1.4,0.9,2.4c0,1-0.3,1.8-0.9,2.4C645.7,203.1,644.9,203.4,643.9,203.4z M641.1,235.4v-26.9h5.6
			v26.9H641.1z"/>
		<path class="st1" d="M663,247.5c-2.2,0-4.1-0.3-5.8-0.8c-1.7-0.6-3-1.3-4-2.4c-1-1-1.4-2.3-1.4-3.9c0-1.2,0.3-2.3,1-3.2
			c0.7-1,1.6-1.9,2.9-2.6v-0.2c-0.7-0.5-1.2-1.1-1.7-1.8s-0.7-1.6-0.7-2.7c0-1.1,0.3-2.1,0.9-2.9c0.6-0.9,1.3-1.5,2-2.1v-0.2
			c-0.9-0.7-1.7-1.7-2.4-2.9c-0.7-1.2-1.1-2.7-1.1-4.2c0-2,0.5-3.7,1.5-5.2c1-1.4,2.2-2.5,3.8-3.3c1.6-0.8,3.3-1.1,5.1-1.1
			c0.8,0,1.5,0.1,2.1,0.2c0.7,0.1,1.2,0.3,1.8,0.5h9.5v4.2h-5.2c0.6,0.5,1,1.3,1.3,2.1c0.3,0.9,0.5,1.8,0.5,2.8c0,1.9-0.4,3.6-1.3,5
			s-2.1,2.4-3.6,3.2c-1.5,0.7-3.2,1.1-5.1,1.1c-0.6,0-1.2-0.1-1.9-0.2c-0.7-0.1-1.3-0.3-1.9-0.6c-0.4,0.4-0.8,0.8-1,1.2
			c-0.3,0.4-0.4,1-0.4,1.7c0,0.8,0.3,1.4,1,1.9c0.7,0.5,1.8,0.7,3.5,0.7h5c3.2,0,5.6,0.5,7.2,1.5c1.6,1,2.4,2.7,2.4,5
			c0,1.7-0.6,3.3-1.7,4.7c-1.1,1.4-2.8,2.5-4.9,3.4C668.3,247,665.8,247.5,663,247.5z M663.8,243.8c1.6,0,2.9-0.2,4.1-0.7
			c1.2-0.5,2.1-1.1,2.7-1.8c0.7-0.7,1-1.5,1-2.4c0-1.1-0.4-1.9-1.3-2.3c-0.9-0.4-2.1-0.6-3.7-0.6h-4.1c-0.6,0-1.2,0-1.8-0.1
			c-0.6-0.1-1.2-0.2-1.8-0.3c-0.8,0.6-1.4,1.2-1.8,1.9c-0.4,0.7-0.6,1.4-0.6,2.1c0,1.3,0.7,2.4,2,3.1S661.5,243.8,663.8,243.8z
			 M663.1,223.3c1,0,1.8-0.2,2.6-0.7c0.8-0.5,1.4-1.1,1.8-2c0.5-0.9,0.7-1.9,0.7-3.1s-0.2-2.2-0.7-3.1c-0.5-0.8-1.1-1.5-1.8-2
			c-0.8-0.5-1.6-0.7-2.6-0.7c-1.4,0-2.6,0.5-3.6,1.5s-1.5,2.4-1.5,4.2c0,1.2,0.2,2.2,0.7,3.1c0.5,0.9,1.1,1.5,1.9,2
			C661.4,223,662.2,223.3,663.1,223.3z"/>
		<path class="st1" d="M683.4,203.4c-1,0-1.8-0.3-2.4-1c-0.7-0.6-1-1.4-1-2.4c0-1,0.3-1.8,1-2.4c0.7-0.6,1.5-0.9,2.4-0.9
			c1,0,1.9,0.3,2.5,0.9c0.6,0.6,0.9,1.4,0.9,2.4c0,1-0.3,1.8-0.9,2.4C685.2,203.1,684.4,203.4,683.4,203.4z M680.6,235.4v-26.9h5.6
			v26.9H680.6z"/>
		<path class="st1" d="M702.2,236c-3,0-5.1-0.9-6.3-2.6s-1.8-4-1.8-6.8v-13.7h-3.9v-4.2l4.2-0.3l0.7-7.4h4.6v7.4h7v4.5h-7v13.7
			c0,1.6,0.3,2.8,0.9,3.7c0.6,0.8,1.6,1.3,3,1.3c0.5,0,1-0.1,1.5-0.2c0.5-0.1,1-0.3,1.4-0.4l1,4.1c-0.7,0.2-1.5,0.4-2.4,0.7
			C704.2,235.9,703.2,236,702.2,236z"/>
		<path class="st1" d="M716.4,236c-1.5,0-2.9-0.3-4.1-1c-1.2-0.6-2.1-1.5-2.8-2.7c-0.7-1.2-1-2.5-1-4.1c0-2.9,1.3-5.1,3.8-6.7
			c2.6-1.6,6.7-2.7,12.3-3.2c0-1.1-0.2-2-0.5-2.9c-0.3-0.9-0.8-1.6-1.6-2.2s-1.8-0.8-3.1-0.8c-1.4,0-2.8,0.3-4.1,0.8
			c-1.3,0.5-2.5,1.2-3.7,1.9l-2.1-3.7c0.9-0.6,1.9-1.2,3.1-1.7c1.1-0.5,2.4-1,3.7-1.3c1.3-0.3,2.7-0.5,4.1-0.5
			c2.2,0,4.1,0.4,5.5,1.3s2.5,2.2,3.2,3.9c0.7,1.7,1,3.8,1,6.1v16.2h-4.6l-0.4-3.1h-0.2c-1.2,1-2.5,1.9-4,2.6
			C719.5,235.7,718,236,716.4,236z M718.1,231.6c1.2,0,2.3-0.3,3.3-0.9c1-0.6,2.1-1.3,3.2-2.3v-6.7c-2.7,0.3-4.8,0.8-6.4,1.3
			c-1.6,0.5-2.7,1.2-3.4,2c-0.7,0.8-1,1.7-1,2.7c0,1.3,0.4,2.3,1.2,2.9C715.9,231.3,716.9,231.6,718.1,231.6z"/>
		<path class="st1" d="M742.3,236c-1.3,0-2.4-0.3-3.2-0.8s-1.4-1.3-1.8-2.4c-0.4-1-0.5-2.3-0.5-3.7v-32.7h5.6v33.1
			c0,0.7,0.1,1.3,0.4,1.6c0.3,0.3,0.6,0.5,0.9,0.5c0.1,0,0.3,0,0.4,0c0.1,0,0.3,0,0.5-0.1l0.7,4.2c-0.3,0.1-0.7,0.2-1.2,0.3
			S743,236,742.3,236z"/>
	</g>
	<path class="st2" d="M225.9,59.8l0-42.8L135.1,0v209.9l90.8-47.3l0-41l44.3-38.4L225.9,59.8z M179.9,158c-10.7,4.7-19,2.1-25-2.6
		l8-19.7c4.5,4,9.9,5.6,16.4,3.1c5.1-2,8.6-5.7,8.6-10.2c0-4.8-4.1-4.9-9.7-4.9c-9,0.2-21.4,0.4-21.4-20.8c0-19.4,11.2-31.7,24-34.8
		c9.5-2.3,16.1,1.2,20.9,5.6l-6.8,17.1c-3.9-3.1-8.2-4.9-13.6-3.4c-4.2,1.2-7.8,4.1-7.8,8.5c0,4.9,4.3,5.1,9.9,5.2
		c8.4,0.1,19.2,0.6,19.2,19.6C202.7,138.5,192.9,152.3,179.9,158z"/>
	<path class="st3" d="M44.3,17l0,42.8L0,83.2l44.3,38.4l0,41l90.8,47.3V0L44.3,17z M118.3,166.7l-17.1-7.5v-8.8
		c-4.4,5-10.2,6.3-16.8,3.4c-14.3-6.3-24.5-28.9-24.5-52.7c0-23.8,10.2-39.3,24.5-35.7c6.6,1.6,12.4,7,16.8,15V35.6l17.1-2.2V166.7z
		 M87.4,89.7c-7.4-2.2-12.8,4.9-12.8,16.6c0,11.7,5.4,22.5,12.8,25.4c7.8,3.1,13.7-3.9,13.7-16.2C101.2,103.1,95.2,92,87.4,89.7z"/>
</g>
</svg>
