<?xml version="1.0" encoding="utf-8"?>
<!-- Generator: Adobe Illustrator 23.0.1, SVG Export Plug-In . SVG Version: 6.00 Build 0)  -->
<svg version="1.1" id="Capa_1" xmlns="http://www.w3.org/2000/svg" xmlns:xlink="http://www.w3.org/1999/xlink" x="0px" y="0px"
	 viewBox="0 0 250 57" style="enable-background:new 0 0 250 57;" xml:space="preserve">
<style type="text/css">
	.st0{fill:#054EB8;}
	.st1{fill:#0D6EFD;}
	.st2{fill:#24252E;}
</style>
<g>
	<g>
		<path class="st0" d="M63.7,17.4l0-11.8L38.8,1v55l24.9-10.4l0-11.2l12.2-10.5L63.7,17.4z M52.1,44.8c-1.1,0.5-2.2,0.7-3.2,0.7
			c-1.5,0-2.9-0.5-4.2-1.5l-0.3-0.3l0.2-0.4l2.2-5.4l0.3-0.7l0.6,0.5c0.8,0.7,1.6,1,2.5,1c0.5,0,1-0.1,1.5-0.3c1.3-0.5,2-1.4,2-2.3
			c0-0.6-0.2-0.8-1.8-0.8c-0.1,0-0.2,0-0.3,0c-0.2,0-0.5,0-0.7,0c-1.7,0-5.7,0-5.7-6.3c0-2.6,0.7-5,2.1-6.8c1.2-1.7,3-2.8,4.9-3.3
			c0.6-0.1,1.2-0.2,1.7-0.2c1.7,0,3.1,0.6,4.5,1.9l0.3,0.3l-0.1,0.4l-1.9,4.7l-0.3,0.7l-0.6-0.5c-0.8-0.7-1.6-1-2.4-1
			c-0.3,0-0.6,0-0.9,0.1c-0.5,0.1-1.7,0.6-1.7,1.8c0,0.7,0.4,0.9,2.2,0.9c2.2,0,5.8,0.1,5.8,5.9C58.7,38.9,56.2,43,52.1,44.8z"/>
		<g>
			<path class="st1" d="M25.5,26.1c-0.2-0.1-0.4-0.1-0.6-0.1c-1.3,0-2.2,1.7-2.2,4.1c0,3,1.4,5.8,3.2,6.5c0.3,0.1,0.5,0.2,0.8,0.2
				c1.3,0,2.2-1.7,2.2-4.1C28.9,29.6,27.4,26.7,25.5,26.1z"/>
			<path class="st1" d="M13.8,5.7l0,11.8L1.7,23.8l12.2,10.5l0,11.2L38.8,56V1L13.8,5.7z M34.7,47.6l-0.8-0.3l-4.7-2.1l-0.3-0.1
				v-1.6c-0.7,0.4-1.4,0.7-2.2,0.7c-0.7,0-1.4-0.2-2.1-0.5c-4.1-1.8-7-8.1-7-15c0-6.3,2.5-10.5,6.2-10.5c0.4,0,0.8,0.1,1.2,0.2
				c1.5,0.4,2.8,1.3,3.9,2.8V10.3l0.5-0.1l4.7-0.6l0.6-0.1V47.6z"/>
		</g>
	</g>
	<g>
		<path class="st2" d="M105.1,7.3v37.5h-6.8v-3.2c-2.1,2.3-5.1,3.8-8.7,3.8c-7.4,0-13-6-13-13.9c0-7.9,5.6-13.9,13-13.9
			c3.5,0,6.5,1.5,8.7,3.8V7.3H105.1z M98.3,31.5c0-4.2-3.1-7.4-7.4-7.4c-4.2,0-7.3,3.2-7.3,7.4s3.1,7.4,7.3,7.4
			C95.2,38.9,98.3,35.7,98.3,31.5z"/>
		<path class="st2" d="M107.4,41.4l3.3-4.5c2,1.8,4.6,3,7.8,3c2.7,0,4.7-0.9,4.7-2.5c0-1.8-2.3-2.4-5.2-3.1
			c-4.2-0.9-9.7-2.2-9.7-8.3c0-5.6,5-8.4,10.8-8.4c4.5,0,7.9,1.6,10.3,3.5l-3.3,4.5c-1.9-1.5-4.2-2.5-6.9-2.5
			c-2.3,0-4.2,0.7-4.2,2.3c0,1.8,2.2,2.3,5.2,3c4.2,0.9,9.7,2.2,9.7,8.3c0,5.6-5,8.7-11.4,8.7C113.7,45.5,110,43.6,107.4,41.4z"/>
		<path class="st2" d="M131.6,10.1c0-2.4,1.9-4.2,4.3-4.2c2.4,0,4.3,1.8,4.3,4.2s-1.9,4.2-4.3,4.2C133.4,14.3,131.6,12.5,131.6,10.1
			z M132.5,18.2h6.8v26.6h-6.8V18.2z"/>
		<path class="st2" d="M170.4,52.7l-7,1.9c-0.2-1.9-1.8-3.2-4.2-3.2h-8.7c-5,0-8.2-2.9-8.2-7.1c0-2.7,1.4-5.3,3.6-6.7
			c-2.2-2.1-3.5-5-3.5-8.3c0-6.7,5.3-11.7,12.5-11.7c2.1,0,4.1,0.5,5.8,1.3c0.8-2.9,3.3-4.6,6.8-4.6h2.2v6.3h-1.9
			c-1.4,0-2.5,0.7-2.7,1.9c1.5,1.9,2.3,4.3,2.3,6.9c0,6.7-5.4,11.7-12.5,11.7c-1.6,0-3-0.3-4.4-0.7c-0.8,0.5-1.4,1.4-1.4,2.3
			c0,1.3,1.1,2.2,2.8,2.2h8.7C165.8,44.8,169.5,47.8,170.4,52.7z M149.2,29.3c0,3,2.3,5.3,5.5,5.3c3.1,0,5.5-2.2,5.5-5.3
			c0-3-2.4-5.3-5.5-5.3C151.6,24,149.2,26.3,149.2,29.3z"/>
		<path class="st2" d="M196.5,27.9v16.9h-6.8V30.1c0-3.6-2.3-5.9-5.8-5.9c-3.7,0-6.2,2.4-6.2,6v14.6h-6.8V18.2h6.8v3
			c2.1-2.3,5-3.6,8.4-3.6C192.4,17.6,196.5,21.7,196.5,27.9z"/>
		<path class="st2" d="M199.6,10.1c0-2.4,1.9-4.2,4.3-4.2c2.4,0,4.3,1.8,4.3,4.2s-1.9,4.2-4.3,4.2C201.5,14.3,199.6,12.5,199.6,10.1
			z M200.5,18.2h6.8v26.6h-6.8V18.2z"/>
		<path class="st2" d="M210,31.5c0-7.9,6.2-13.9,14.3-13.9c8.1,0,14.3,6,14.3,13.9c0,7.9-6.2,13.9-14.3,13.9
			C216.2,45.5,210,39.5,210,31.5z M231.6,31.5c0-4.2-3.1-7.4-7.3-7.4c-4.2,0-7.3,3.2-7.3,7.4s3.1,7.4,7.3,7.4
			C228.5,38.9,231.6,35.7,231.6,31.5z"/>
		<path class="st2" d="M239.2,40.6c0-2.7,2-4.7,4.7-4.7c2.7,0,4.7,2,4.7,4.7c0,2.7-2,4.7-4.7,4.7C241.2,45.3,239.2,43.3,239.2,40.6z
			"/>
	</g>
</g>
</svg>
